<?xml version="1.0" encoding="UTF-8"?>
<svg version="1.1" xmlns="http://www.w3.org/2000/svg" width="512" height="512">
<path d="M0 0 C0 30.69 0 61.38 0 93 C-13.86 100.92 -13.86 100.92 -28 109 C-36.96929948 114.2242262 -36.96929948 114.2242262 -45.93359375 119.45703125 C-52.10052892 123.06010417 -58.26952996 126.65949336 -64.44891357 130.24118042 C-66.14651292 131.22621713 -67.84208171 132.21475064 -69.53759766 133.20336914 C-70.57062012 133.80141357 -71.60364258 134.39945801 -72.66796875 135.015625 C-73.57828857 135.54446289 -74.4886084 136.07330078 -75.42651367 136.61816406 C-77.90182662 137.94728571 -80.37184168 139.01329313 -83 140 C-81.65166072 144.51736906 -80.04497134 146.01431856 -75.9609375 148.27734375 C-74.91808594 148.86580078 -73.87523437 149.45425781 -72.80078125 150.06054688 C-71.67027344 150.67994141 -70.53976563 151.29933594 -69.375 151.9375 C-68.19310717 152.59930094 -67.01212915 153.26273806 -65.83203125 153.92773438 C-63.40501144 155.29433512 -60.97467156 156.65473274 -58.54199219 158.01123047 C-53.31816752 160.93333945 -48.16102863 163.9688098 -43 167 C-32.46257489 173.15984425 -21.90130361 179.27755983 -11.31640625 185.35546875 C-7.15985876 187.74457497 -3.02406126 190.1646103 1.09765625 192.61328125 C2.05325439 193.17515137 3.00885254 193.73702148 3.9934082 194.31591797 C5.77804779 195.36574315 7.55697437 196.42536692 9.32885742 197.49658203 C10.51958862 198.19243408 10.51958862 198.19243408 11.734375 198.90234375 C12.41725586 199.30960693 13.10013672 199.71687012 13.80371094 200.13647461 C17.65359606 201.65015221 20.78812726 201.4963776 24.59521484 199.93701172 C25.45840332 199.43959473 26.3215918 198.94217773 27.2109375 198.4296875 C28.19570068 197.87031494 29.18046387 197.31094238 30.19506836 196.73461914 C31.76913452 195.81410767 31.76913452 195.81410767 33.375 194.875 C34.4791626 194.24263428 35.5833252 193.61026855 36.72094727 192.95874023 C40.15568401 190.98636313 43.57872626 188.99561943 47 187 C49.02206906 185.82670855 51.04420175 184.65352676 53.06640625 183.48046875 C57.01400025 181.18534834 60.95577248 178.88055836 64.89453125 176.5703125 C72.36385109 172.19337083 79.87112132 167.88270573 87.37670898 163.56835938 C92.75924253 160.46817653 98.12456402 157.34314405 103.4609375 154.1640625 C104.47913574 153.55763916 105.49733398 152.95121582 106.54638672 152.32641602 C108.47490956 151.17469031 110.40112911 150.01909656 112.32470703 148.85913086 C113.17661621 148.35003174 114.02852539 147.84093262 114.90625 147.31640625 C115.65197266 146.86724854 116.39769531 146.41809082 117.16601562 145.95532227 C119 145 119 145 121 145 C119.64511738 140.4466023 117.95855934 138.91939331 113.8828125 136.57421875 C112.81538818 135.95087646 111.74796387 135.32753418 110.64819336 134.68530273 C109.47397362 134.0190546 108.29957058 133.35312943 107.125 132.6875 C105.90628735 131.98305333 104.68828112 131.27738329 103.47094727 130.57055664 C100.28765839 128.72726405 97.09450596 126.90184627 93.89788818 125.08178711 C91.47682347 123.7017919 89.060169 122.31419043 86.64361572 120.92631531 C81.67435207 118.07263454 76.69783585 115.23199617 71.71484375 112.40234375 C60.45302075 105.97597691 49.23128604 99.4795881 38 93 C38 62.31 38 31.62 38 0 C42.42298576 1.47432859 45.52590216 2.70340233 49.4296875 4.984375 C50.97462891 5.8815625 50.97462891 5.8815625 52.55078125 6.796875 C53.64777344 7.44140625 54.74476563 8.0859375 55.875 8.75 C57.03746744 9.42758622 58.20023297 10.10466127 59.36328125 10.78125 C62.3414967 12.51544739 65.31598625 14.25592563 68.28942871 15.99829102 C70.90197118 17.5281935 73.51741191 19.05311506 76.1328125 20.578125 C79.0746486 22.29358653 82.01622329 24.00947944 84.95654297 25.72753906 C92.28957239 30.01084503 99.64118572 34.26117001 107 38.5 C120.35015665 46.19117469 133.65733128 53.9548296 146.95898438 61.72949219 C159.38082591 68.98853142 171.82158421 76.21304171 184.28857422 83.39428711 C192.51292381 88.13448084 200.71602799 92.91011083 208.91040039 97.7019043 C214.3456479 100.87739717 219.78984639 104.0365544 225.24609375 107.17578125 C226.14976181 107.69590286 226.14976181 107.69590286 227.07168579 108.22653198 C230.00938927 109.91696396 232.94825226 111.60530817 235.88867188 113.29101562 C237.4577832 114.19303711 237.4577832 114.19303711 239.05859375 115.11328125 C240.45549438 115.91439331 240.45549438 115.91439331 241.88061523 116.73168945 C244 118 244 118 245 119 C245.09804237 122.08451828 245.12990727 125.14666065 245.12025452 128.23158264 C245.12153615 129.70294313 245.12153615 129.70294313 245.12284368 131.20402807 C245.12450146 134.51762862 245.11897226 137.83117944 245.11352539 141.14477539 C245.11324356 143.50942483 245.11340118 145.87407436 245.1139679 148.23872375 C245.11422605 154.01048361 245.10987474 159.78222696 245.10353024 165.55398304 C245.09639628 172.26749115 245.09488634 178.98099688 245.09374207 185.69450825 C245.09155123 197.66784298 245.08489029 209.64117091 245.07543945 221.61450195 C245.06626615 233.24829067 245.05918492 244.88207754 245.05493164 256.51586914 C245.05453756 257.59079346 245.05453756 257.59079346 245.05413551 258.68743343 C245.05283051 262.28233988 245.05156679 265.87724635 245.05032361 269.47215283 C245.03995001 299.31477332 245.02225671 329.15738587 245 359 C242.4516926 357.73332471 239.90421424 356.46502706 237.35717773 355.19580078 C236.28431644 354.66283134 236.28431644 354.66283134 235.18978119 354.11909485 C229.37321197 351.21814848 223.69520642 348.11885178 218.0625 344.875 C216.09405403 343.75207105 214.1252922 342.62969564 212.15625 341.5078125 C211.15207031 340.93450195 210.14789063 340.36119141 209.11328125 339.77050781 C203.7782503 336.73650182 198.41996644 333.74415523 193.0625 330.75 C183.6996522 325.51527798 174.34932845 320.25899725 165 315 C164.505 265.995 164.505 265.995 164 216 C159.71295807 216.85740839 157.54566673 217.59425939 153.88671875 219.66796875 C152.40473999 220.5021936 152.40473999 220.5021936 150.89282227 221.35327148 C149.30618774 222.2612146 149.30618774 222.2612146 147.6875 223.1875 C146.57882568 223.815354 145.47015137 224.44320801 144.32788086 225.09008789 C134.87539224 230.45906927 125.48279511 235.93070891 116.10546875 241.4296875 C110.81115592 244.53209829 105.49837921 247.60140921 100.17944336 250.66137695 C94.7819252 253.76669456 89.39087493 256.88316895 84 260 C82.9265332 260.6192334 81.85306641 261.2384668 80.74707031 261.87646484 C77.66040218 263.66034291 74.57944977 265.45369672 71.5 267.25 C70.56784668 267.7869751 69.63569336 268.3239502 68.67529297 268.87719727 C67.82338379 269.37662842 66.97147461 269.87605957 66.09375 270.390625 C65.34802734 270.82407227 64.60230469 271.25751953 63.83398438 271.70410156 C61.71683855 273.03536664 61.71683855 273.03536664 60 276 C59.70482325 278.2429131 59.70482325 278.2429131 59.75949097 280.76457214 C59.75674164 281.74473801 59.75399231 282.72490387 59.75115967 283.73477173 C59.75835022 284.80867157 59.76554077 285.88257141 59.77294922 286.98901367 C59.77251114 288.68679207 59.77251114 288.68679207 59.77206421 290.41886902 C59.77346011 294.16864629 59.78903378 297.91822609 59.8046875 301.66796875 C59.8084167 304.26442862 59.81126411 306.8608899 59.81326294 309.45735168 C59.82012499 315.59841805 59.83589586 321.73940263 59.85596192 327.88043815 C59.87831122 334.87190034 59.88931191 341.86336592 59.89935279 348.85485494 C59.92026185 363.23660818 59.95544389 377.61830156 60 392 C63.23623169 392.99757655 63.23623169 392.99757655 66.47924805 391.98706055 C67.39746338 391.45894775 68.31567871 390.93083496 69.26171875 390.38671875 C70.289021 389.80349854 71.31632324 389.22027832 72.37475586 388.61938477 C73.46796143 387.98186279 74.56116699 387.34434082 75.6875 386.6875 C76.81873291 386.04031006 77.94996582 385.39312012 79.11547852 384.72631836 C82.41858513 382.83140917 85.71123147 380.91966482 89 379 C89.79728516 378.53561523 90.59457031 378.07123047 91.41601562 377.59277344 C94.75818575 375.64187878 98.09050217 373.67506448 101.41796875 371.69921875 C108.45534595 367.53325828 115.56183671 363.48440764 122.66064453 359.42431641 C127.2921942 356.76529905 131.90750096 354.11381592 136.37890625 351.19140625 C136.97864258 350.80098145 137.57837891 350.41055664 138.19628906 350.00830078 C139.66985334 349.0320088 141.12692361 348.03093703 142.58203125 347.02734375 C145 346 145 346 147.32226562 346.75146484 C150.06133934 348.02860042 152.64979975 349.42886199 155.26171875 350.94921875 C156.28475098 351.54226807 157.3077832 352.13531738 158.36181641 352.74633789 C159.45929199 353.38692139 160.55676758 354.02750488 161.6875 354.6875 C162.84794246 355.36159474 164.00859074 356.03533525 165.16943359 356.70874023 C167.58134125 358.10820931 169.99235586 359.50919971 172.40283203 360.91113281 C176.89605003 363.52257317 181.4001606 366.11503199 185.90405273 368.70800781 C199.29952577 376.42058366 212.65707741 384.19691915 226 392 C223.65110132 394.46409125 221.5237355 396.48500806 218.515625 398.0859375 C217.84096191 398.45154785 217.16629883 398.8171582 216.47119141 399.19384766 C215.73819824 399.58362793 215.00520508 399.9734082 214.25 400.375 C206.96570064 404.33454021 199.77435503 408.42679103 192.625 412.625 C183.78293571 417.80872067 174.90577794 422.92688176 166 428 C156.27856294 433.53951839 146.59104683 439.13375194 136.93310547 444.78344727 C126.40915375 450.93766742 115.84619863 457.02369996 105.28222656 463.10888672 C99.85340058 466.23680148 94.42680719 469.36858448 89 472.5 C86.83334417 473.75001879 84.6666775 475.00001878 82.5 476.25 C81.4275 476.86875 80.355 477.4875 79.25 478.125 C69.5 483.75 69.5 483.75 66.24438477 485.62817383 C64.09635954 486.86746267 61.94840925 488.10688141 59.80053711 489.34643555 C54.71344451 492.28202567 49.62558153 495.21625672 44.5350647 498.14590454 C42.12456252 499.53328095 39.71448624 500.92139624 37.30444336 502.30957031 C35.59856032 503.29173815 33.89206014 504.27283385 32.18554688 505.25390625 C31.15623047 505.846875 30.12691406 506.43984375 29.06640625 507.05078125 C27.7043103 507.83449097 27.7043103 507.83449097 26.31469727 508.6340332 C24.50873799 509.69977966 22.74478871 510.83680752 21 512 C16.9249974 512.4840968 14.64301663 511.55699301 11.17578125 509.46484375 C10.24314453 508.91054688 9.31050781 508.35625 8.34960938 507.78515625 C6.84624023 506.87056641 6.84624023 506.87056641 5.3125 505.9375 C3.14243457 504.64367968 0.97184362 503.35074048 -1.19921875 502.05859375 C-2.32118652 501.38683105 -3.4431543 500.71506836 -4.59912109 500.02294922 C-10.03284526 496.79080002 -15.51695718 493.64749691 -21 490.5 C-29.3487593 485.69283765 -37.68244114 480.86093774 -46 476 C-58.63743454 468.61585107 -71.31675298 461.30509865 -84 454 C-97.6741218 446.12419276 -111.33736974 438.23144154 -124.96142578 430.26928711 C-132.29312927 425.98754821 -139.64322308 421.73848806 -147 417.5 C-149.15890853 416.25400043 -151.31776278 415.00790682 -153.4765625 413.76171875 C-157.9252562 411.19402985 -162.37944026 408.63614771 -166.8359375 406.08203125 C-169.01578766 404.82580305 -171.19548111 403.56930286 -173.375 402.3125 C-174.385625 401.73628906 -175.39625 401.16007812 -176.4375 400.56640625 C-177.37335938 400.025 -178.30921875 399.48359375 -179.2734375 398.92578125 C-180.50199463 398.22062378 -180.50199463 398.22062378 -181.75537109 397.5012207 C-184.15380995 395.89713102 -186.0299369 394.10014031 -188 392 C-176.95382431 385.0011073 -165.60093381 378.53376418 -154.26263428 372.02365112 C-149.03991315 369.02476134 -143.82244582 366.01692616 -138.61181641 362.99707031 C-136.38656098 361.71653843 -134.15318651 360.45000418 -131.91162109 359.19824219 C-125.21727231 355.43874059 -125.21727231 355.43874059 -119.13671875 350.7890625 C-115.82199011 347.98804292 -113.46026726 346.44833774 -109 346 C-101.08669952 348.52747006 -94.14770381 353.38741102 -87.25048828 357.89990234 C-82.29547807 361.10126917 -77.17857208 364.00360054 -72.0625 366.9375 C-70.09515987 368.0878036 -68.12902656 369.24017351 -66.1640625 370.39453125 C-59.43928031 374.3349526 -52.69019689 378.23269161 -45.9375 382.125 C-44.30470093 383.06653931 -44.30470093 383.06653931 -42.63891602 384.02709961 C-40.63329306 385.18294901 -38.62600871 386.33592271 -36.61669922 387.48535156 C-35.00212089 388.41993301 -33.3971459 389.37162791 -31.80908203 390.35058594 C-30.24749706 391.30509199 -28.62867838 392.16511308 -27 393 C-26.01 392.67 -25.02 392.34 -24 392 C-23.88316607 376.83155732 -23.79501161 361.6631354 -23.74093914 346.49434376 C-23.71516419 339.45107285 -23.68002787 332.40808162 -23.62280273 325.36499023 C-23.56761863 318.56986016 -23.5385899 311.77502104 -23.52561378 304.97968102 C-23.51636475 302.38526519 -23.49830383 299.79086554 -23.47134972 297.19657326 C-23.43513056 293.56665098 -23.43005197 289.9379348 -23.43237305 286.30786133 C-23.41439667 285.2318013 -23.39642029 284.15574127 -23.37789917 283.04707336 C-23.38997141 277.02441965 -23.38997141 277.02441965 -26.36514282 271.90565491 C-29.08185129 269.94080123 -31.7717034 268.1757409 -34.69921875 266.5390625 C-35.81248535 265.91056396 -36.92575195 265.28206543 -38.07275391 264.63452148 C-39.27765594 263.96465701 -40.48257167 263.29481717 -41.6875 262.625 C-42.94502841 261.917689 -44.20201889 261.20942084 -45.45849609 260.50024414 C-48.04255493 259.04213888 -50.62838796 257.58725663 -53.21533203 256.13427734 C-58.87814438 252.94765234 -64.50118658 249.69230303 -70.125 246.4375 C-72.25775476 245.20562919 -74.39056741 243.97385861 -76.5234375 242.7421875 C-77.58143555 242.13084961 -78.63943359 241.51951172 -79.72949219 240.88964844 C-83.12396668 238.92837399 -86.51889429 236.96788568 -89.9140625 235.0078125 C-91.05125732 234.35119629 -92.18845215 233.69458008 -93.36010742 233.01806641 C-95.58862388 231.73247643 -97.81793099 230.44825588 -100.0480957 229.16552734 C-104.57049879 226.56386426 -109.08847437 223.95888084 -113.56640625 221.28125 C-114.5404541 220.70491821 -114.5404541 220.70491821 -115.53417969 220.11694336 C-117.14841729 219.15979177 -118.7562301 218.19182538 -120.36328125 217.22265625 C-123.20474777 215.9050577 -124.92037304 215.89922392 -128 216 C-127.99254257 217.20189972 -127.98508514 218.40379944 -127.97740173 219.64212036 C-127.91296901 230.97189346 -127.89579985 242.30088509 -127.92484188 253.63081551 C-127.93825557 259.45574423 -127.93504805 265.27967371 -127.89379883 271.10449219 C-127.85459795 276.72654347 -127.85913157 282.34701857 -127.89392281 287.96908188 C-127.89951947 290.11327673 -127.8893864 292.25757248 -127.86323357 294.40161514 C-127.82925944 297.40770722 -127.85134212 300.4085814 -127.88647461 303.41455078 C-127.86346786 304.30000076 -127.84046112 305.18545074 -127.8167572 306.09773254 C-127.88208835 308.68890055 -128.03991011 310.58810569 -129 313 C-131.72531068 315.57148107 -134.68869412 317.28159664 -138 319 C-138.999104 319.60585938 -139.99820801 320.21171875 -141.02758789 320.8359375 C-141.91696045 321.34382813 -142.80633301 321.85171875 -143.72265625 322.375 C-145.25394165 323.25333496 -145.25394165 323.25333496 -146.81616211 324.14941406 C-147.88745361 324.76010742 -148.95874512 325.37080078 -150.0625 326 C-152.37790415 327.32760599 -154.69299928 328.65574005 -157.0078125 329.984375 C-157.59173264 330.31910828 -158.17565277 330.65384155 -158.77726746 330.99871826 C-164.68186527 334.38533286 -170.56101032 337.8149251 -176.4375 341.25 C-178.39711824 342.39325862 -180.35675337 343.53648827 -182.31640625 344.6796875 C-186.09856441 346.88729358 -189.8765273 349.10188028 -193.65234375 351.3203125 C-195.39315969 352.33866044 -197.13404158 353.35689566 -198.875 354.375 C-199.67220459 354.84583008 -200.46940918 355.31666016 -201.29077148 355.80175781 C-206.77338552 359 -206.77338552 359 -209 359 C-209.54829339 328.66482738 -209.97262747 298.33016943 -210.22556791 267.99116974 C-210.25558247 264.40409851 -210.28664643 260.81703707 -210.31835938 257.22998047 C-210.32780255 256.15886767 -210.32780255 256.15886767 -210.3374365 255.06611623 C-210.4416862 243.52482511 -210.63079759 231.9864224 -210.85166711 220.44684123 C-211.07664541 208.59312422 -211.20951826 196.74091223 -211.25812387 184.88514817 C-211.28801838 178.23017698 -211.36246845 171.58045529 -211.53752136 164.92724228 C-212.59543156 123.14496557 -212.59543156 123.14496557 -206.65154648 115.43904686 C-201.12075131 110.23299388 -195.10527751 107.67856751 -187.8231926 105.79554939 C-183.87459096 104.68287021 -180.89616862 102.85518663 -177.4453125 100.66015625 C-175.33911389 99.45993278 -173.23235287 98.26069565 -171.125 97.0625 C-168.7521153 95.71049197 -166.37987491 94.35735636 -164.0078125 93.00390625 C-163.4213092 92.66932404 -162.83480591 92.33474182 -162.23052979 91.99002075 C-156.14164845 88.51417264 -150.07018636 85.00835881 -144 81.5 C-135.01459064 76.307595 -126.01354666 71.14333816 -117 66 C-103.64161987 58.37661796 -90.31676114 50.69583975 -77 43 C-62.40845145 34.56745262 -47.80760715 26.15201997 -33.16699219 17.80493164 C-27.64883949 14.65843207 -22.13534685 11.50473874 -16.63671875 8.32421875 C-15.65936768 7.76049561 -14.6820166 7.19677246 -13.67504883 6.6159668 C-11.85386276 5.56492219 -10.03457923 4.51057168 -8.2175293 3.45239258 C-7.02317261 2.76439575 -7.02317261 2.76439575 -5.8046875 2.0625 C-5.11358887 1.66160156 -4.42249023 1.26070313 -3.71044922 0.84765625 C-2 -0 -2 -0 0 0 Z " fill="#000000" transform="translate(238,0)"/>
</svg>
